<svg xmlns="http://www.w3.org/2000/svg" width="21.244" height="22.801" viewBox="0 0 21.244 22.801">
  <g id="paperclip" transform="translate(-1062.617 -292.476)">
    <path id="Form_21" data-name="Form 21" d="M1082.169,302.515a.979.979,0,0,1,1.4,0,1.021,1.021,0,0,1,0,1.426l-9.107,9.268a6.855,6.855,0,0,1-9.814,0,7.151,7.151,0,0,1,0-9.988l9.107-9.267a4.9,4.9,0,0,1,7.01,0,5.108,5.108,0,0,1,0,7.134l-9.116,9.267a2.938,2.938,0,0,1-4.206,0,3.064,3.064,0,0,1,0-4.28l8.413-8.551a.979.979,0,0,1,1.4,0,1.021,1.021,0,0,1,0,1.426l-8.412,8.551a1.022,1.022,0,0,0,0,1.428.98.98,0,0,0,1.4,0l9.116-9.267a3.066,3.066,0,0,0,0-4.282,2.939,2.939,0,0,0-4.207,0l-9.107,9.267a5.109,5.109,0,0,0,0,7.135,4.9,4.9,0,0,0,7.012,0Z" fill="currentColor"/>
  </g>
</svg>
