<svg width="18" height="17" viewBox="0 0 18 17" fill="none" xmlns="http://www.w3.org/2000/svg">
<path d="M3.30357 3.125C3.02743 3.125 2.80357 3.34886 2.80357 3.625C2.80357 3.90114 3.02743 4.125 3.30357 4.125V3.125ZM17.3214 3.625L17.8022 3.76236C17.8453 3.6115 17.8151 3.44916 17.7206 3.3239C17.6261 3.19865 17.4783 3.125 17.3214 3.125V3.625ZM15.259 10.8434L15.7398 10.9808L15.259 10.8434ZM14.0571 11.75V12.25V11.75ZM6.56788 11.75V12.25V11.75ZM5.36597 10.8434L4.88521 10.9808L5.36597 10.8434ZM2.54023 0.953299L3.02099 0.815939V0.815939L2.54023 0.953299ZM1.93928 0.5L1.93928 0H1.93928V0.5ZM0.625 0C0.348858 0 0.125 0.223858 0.125 0.5C0.125 0.776142 0.348858 1 0.625 1V0ZM14.375 16.625C15.3415 16.625 16.125 15.8415 16.125 14.875H15.125C15.125 15.2892 14.7892 15.625 14.375 15.625V16.625ZM16.125 14.875C16.125 13.9085 15.3415 13.125 14.375 13.125V14.125C14.7892 14.125 15.125 14.4608 15.125 14.875H16.125ZM14.375 13.125C13.4085 13.125 12.625 13.9085 12.625 14.875H13.625C13.625 14.4608 13.9608 14.125 14.375 14.125V13.125ZM12.625 14.875C12.625 15.8415 13.4085 16.625 14.375 16.625V15.625C13.9608 15.625 13.625 15.2892 13.625 14.875H12.625ZM6.25 16.625C7.2165 16.625 8 15.8415 8 14.875H7C7 15.2892 6.66421 15.625 6.25 15.625V16.625ZM8 14.875C8 13.9085 7.2165 13.125 6.25 13.125V14.125C6.66421 14.125 7 14.4608 7 14.875H8ZM6.25 13.125C5.2835 13.125 4.5 13.9085 4.5 14.875H5.5C5.5 14.4608 5.83579 14.125 6.25 14.125V13.125ZM4.5 14.875C4.5 15.8415 5.2835 16.625 6.25 16.625V15.625C5.83579 15.625 5.5 15.2892 5.5 14.875H4.5ZM3.30357 4.125H17.3214V3.125H3.30357V4.125ZM16.8407 3.48764L14.7783 10.706L15.7398 10.9808L17.8022 3.76236L16.8407 3.48764ZM14.7783 10.706C14.7335 10.8628 14.6389 11.0006 14.5088 11.0988L15.111 11.8971C15.4146 11.6681 15.6353 11.3464 15.7398 10.9808L14.7783 10.706ZM14.5088 11.0988C14.3787 11.1969 14.2201 11.25 14.0571 11.25V12.25C14.4374 12.25 14.8074 12.1261 15.111 11.8971L14.5088 11.0988ZM14.0571 11.25H6.56788V12.25H14.0571V11.25ZM6.56788 11.25C6.40489 11.25 6.24635 11.1969 6.11623 11.0988L5.51403 11.8971C5.81764 12.1261 6.18758 12.25 6.56788 12.25V11.25ZM6.11623 11.0988C5.98611 11.0006 5.89151 10.8628 5.84673 10.706L4.88521 10.9808C4.98969 11.3464 5.21043 11.6681 5.51403 11.8971L6.11623 11.0988ZM5.84673 10.706L3.02099 0.815939L2.05947 1.09066L4.88521 10.9808L5.84673 10.706ZM3.02099 0.815939C2.95383 0.580871 2.81192 0.374079 2.61675 0.226858L2.01455 1.02521C2.03624 1.04156 2.052 1.06454 2.05947 1.09066L3.02099 0.815939ZM2.61675 0.226858C2.42157 0.079637 2.18375 2.98023e-08 1.93928 0L1.93928 1C1.96644 1 1.99286 1.00885 2.01455 1.02521L2.61675 0.226858ZM1.93928 0H0.625V1H1.93928V0Z" fill="currentColor"/>
</svg>
