<svg width="20" height="27" viewBox="0 0 20 27" fill="none" xmlns="http://www.w3.org/2000/svg">
<path fill-rule="evenodd" clip-rule="evenodd" d="M10.1459 2.33335C6.44239 2.33335 3.44012 5.31812 3.44012 9.00002C3.44012 10.6184 4.01847 12.099 4.98231 13.2538C5.59822 13.9918 6.12243 14.9905 6.12243 16.155V18.3334C6.12243 19.0697 6.72288 19.6667 7.46358 19.6667H12.8282C13.5689 19.6667 14.1693 19.0697 14.1693 18.3334V16.155C14.1693 14.9905 14.6935 13.9918 15.3095 13.2538C16.2733 12.099 16.8517 10.6184 16.8517 9.00002C16.8517 5.31812 13.8494 2.33335 10.1459 2.33335ZM0.757812 9.00002C0.757812 3.84536 4.961 -0.333313 10.1459 -0.333313C15.3308 -0.333313 19.534 3.84536 19.534 9.00002C19.534 11.263 18.7222 13.3409 17.3737 14.9566C17.0152 15.3861 16.8517 15.8025 16.8517 16.155V18.3334C16.8517 20.5425 15.0503 22.3334 12.8282 22.3334H7.46358C5.24148 22.3334 3.44012 20.5425 3.44012 18.3334V16.155C3.44012 15.8025 3.27655 15.3861 2.91806 14.9566C1.5696 13.3409 0.757812 11.263 0.757812 9.00002ZM4.78127 25C4.78127 24.2636 5.38173 23.6667 6.12243 23.6667H14.1693C14.91 23.6667 15.5105 24.2636 15.5105 25C15.5105 25.7364 14.91 26.3334 14.1693 26.3334H6.12243C5.38173 26.3334 4.78127 25.7364 4.78127 25Z" fill="#F9CB4B"/>
</svg>
