<svg width="20" height="10" viewBox="0 0 20 10" fill="none" xmlns="http://www.w3.org/2000/svg">
<path d="M5.23227 8.53497L4.52516 9.24207C4.7127 9.42961 4.96705 9.53497 5.23227 9.53497C5.49748 9.53497 5.75184 9.42961 5.93937 9.24207L5.23227 8.53497ZM13.0094 2.17207C13.3999 1.78155 13.3999 1.14838 13.0094 0.757859C12.6188 0.367335 11.9857 0.367335 11.5952 0.757859L13.0094 2.17207ZM2.40437 4.29286C2.01385 3.90233 1.38068 3.90233 0.990159 4.29286C0.599635 4.68338 0.599635 5.31655 0.990159 5.70707L2.40437 4.29286ZM11.2322 8.53497L10.5251 9.24207C10.9156 9.6326 11.5488 9.6326 11.9393 9.24207L11.2322 8.53497ZM19.0093 2.17207C19.3999 1.78155 19.3999 1.14838 19.0093 0.757859C18.6188 0.367335 17.9856 0.367335 17.5951 0.757859L19.0093 2.17207ZM5.93937 9.24207L13.0094 2.17207L11.5952 0.757859L4.52516 7.82786L5.93937 9.24207ZM5.93937 7.82786L2.40437 4.29286L0.990159 5.70707L4.52516 9.24207L5.93937 7.82786ZM11.9393 9.24207L19.0093 2.17207L17.5951 0.757859L10.5251 7.82786L11.9393 9.24207ZM11.9393 7.82786L10.4043 6.29286L8.99012 7.70708L10.5251 9.24207L11.9393 7.82786Z" fill="currentColor"/>
</svg>
