<svg width="14" height="14" viewBox="0 0 14 14" fill="none" xmlns="http://www.w3.org/2000/svg">
<path d="M4.96805 12.4681L1.5318 9.03185M7.5 3.00005L11 6.50005M4.79289 12.5H2C1.86739 12.5 1.74021 12.4474 1.64645 12.3536C1.55268 12.2598 1.5 12.1327 1.5 12V9.20715C1.5 9.14149 1.51293 9.07647 1.53806 9.01581C1.56319 8.95515 1.60002 8.90003 1.64645 8.8536L9.14645 1.3536C9.24022 1.25983 9.36739 1.20715 9.5 1.20715C9.63261 1.20715 9.75978 1.25983 9.85355 1.3536L12.6464 4.14649C12.7402 4.24026 12.7929 4.36744 12.7929 4.50005C12.7929 4.63265 12.7402 4.75983 12.6464 4.8536L5.14645 12.3536C5.10002 12.4 5.0449 12.4369 4.98423 12.462C4.92357 12.4871 4.85855 12.5 4.79289 12.5Z" stroke="currentColor" stroke-width="1.5" stroke-linecap="round" stroke-linejoin="round"/>
</svg>
