<svg width="24" height="24" viewBox="0 0 24 24" fill="none" xmlns="http://www.w3.org/2000/svg">
<path d="M11.9121 4.94118C4.41211 4.94118 1.41211 11.6919 1.41211 11.6919C1.41211 11.6919 4.41211 18.4412 11.9121 18.4412C19.4121 18.4412 22.4121 11.6919 22.4121 11.6919C22.4121 11.6919 19.4121 4.94118 11.9121 4.94118Z" stroke="currentColor" stroke-width="1.5" stroke-linecap="round" stroke-linejoin="round"/>
<path d="M15.2789 8.84329L13.5902 11.0099L11.9016 13.1765L9.88212 11.0099M16.2351 11.6471C16.2351 14.1811 14.1808 16.2353 11.6468 16.2353C9.11282 16.2353 7.05859 14.1811 7.05859 11.6471C7.05859 9.11305 9.11282 7.05882 11.6468 7.05882C14.1808 7.05882 16.2351 9.11305 16.2351 11.6471Z" stroke="currentColor" stroke-width="1.5" stroke-linecap="round" stroke-linejoin="round"/>
</svg>
