<svg xmlns="http://www.w3.org/2000/svg" width="15.118" height="10.079" viewBox="0 0 15.118 10.079">
  <path id="Icon_awesome-eye" data-name="Icon awesome-eye" d="M15.027,9.156A8.418,8.418,0,0,0,7.559,4.5,8.42,8.42,0,0,0,.091,9.156a.849.849,0,0,0,0,.766,8.418,8.418,0,0,0,7.468,4.656,8.42,8.42,0,0,0,7.468-4.656A.849.849,0,0,0,15.027,9.156ZM7.559,13.319a3.78,3.78,0,1,1,3.78-3.78A3.78,3.78,0,0,1,7.559,13.319Zm0-6.3a2.5,2.5,0,0,0-.664.1A1.256,1.256,0,0,1,5.139,8.875,2.514,2.514,0,1,0,7.559,7.02Z" transform="translate(0 -4.5)" fill="currentColor"/>
</svg>
