<svg width="20" height="23" viewBox="0 0 20 23" fill="none" xmlns="http://www.w3.org/2000/svg">
<path d="M9.00038 13.25L9.00038 19.625C9.00038 20.1223 9.19792 20.5992 9.54955 20.9508C9.90118 21.3025 10.3781 21.5 10.8754 21.5C11.3727 21.5 11.8496 21.3025 12.2012 20.9508C12.5528 20.5992 12.7504 20.1223 12.7504 19.625L12.7504 8.2563L14.8061 11.8169C14.9291 12.0303 15.0929 12.2175 15.2883 12.3676C15.4837 12.5177 15.7067 12.6278 15.9446 12.6917C16.1826 12.7555 16.4308 12.7719 16.675 12.7398C16.9193 12.7077 17.1548 12.6277 17.3682 12.5045C17.5815 12.3814 17.7685 12.2173 17.9184 12.0219C18.0684 11.8264 18.1783 11.6033 18.242 11.3653C18.3056 11.1273 18.3218 10.8791 18.2895 10.6348C18.2572 10.3906 18.177 10.1551 18.0537 9.94189C15.0004 3.5 13.1425 1.25 9.00038 1.25C8.01546 1.25 7.0402 1.44399 6.13025 1.8209C5.22031 2.19781 4.39352 2.75026 3.69708 3.4467C3.00064 4.14314 2.44819 4.96993 2.07128 5.87987C1.69437 6.78982 1.50038 7.76508 1.50038 8.75L1.50038 12.5C1.50038 12.9973 1.69792 13.4742 2.04955 13.8258C2.40118 14.1775 2.8781 14.375 3.37538 14.375C3.87266 14.375 4.34957 14.1775 4.7012 13.8258C5.05283 13.4742 5.25038 12.9973 5.25038 12.5" stroke="#1C7BFF" stroke-width="1.5" stroke-linecap="round" stroke-linejoin="round"/>
<path d="M5.25038 12.5L5.25038 13.625C5.25038 14.1223 5.44792 14.5992 5.79955 14.9508C6.15118 15.3025 6.6281 15.5 7.12538 15.5C7.62266 15.5 8.09957 15.3025 8.4512 14.9508C8.80283 14.5992 9.00038 14.1223 9.00038 13.625L9.00038 13.25" stroke="#1C7BFF" stroke-width="1.5" stroke-linecap="round" stroke-linejoin="round"/>
</svg>
