<svg xmlns="http://www.w3.org/2000/svg" width="28.01" height="23" viewBox="0 0 28.01 23">
  <g id="folders" transform="translate(-1144.99 -380)">
    <path id="Form_16" data-name="Form 16" d="M1151,380a28.888,28.888,0,0,0-3,.086,2.86,2.86,0,0,0-2.918,2.916,28.734,28.734,0,0,0-.086,3v7c0,2.25-.14,3.581.635,4.727a2.772,2.772,0,0,0,1.7,1.076,9,9,0,0,0,1.7.17c.012.361.024.716.059,1.023a2.859,2.859,0,0,0,2.916,2.918c.532.06,1.173.074,1.881.08A1.014,1.014,0,0,0,1154,403h13a28.745,28.745,0,0,0,3-.086,2.859,2.859,0,0,0,2.916-2.918,28.8,28.8,0,0,0,.086-3v-4a1.021,1.021,0,0,0-.006-.119c-.006-.706-.02-1.346-.08-1.877a2.859,2.859,0,0,0-2.916-2.918c-.309-.035-.667-.046-1.029-.058a.994.994,0,0,0,.027-.254,12.062,12.062,0,0,0-.18-2.385,2.8,2.8,0,0,0-1.053-1.73c-1.145-.8-2.49-.658-4.764-.658h-2.654a7.773,7.773,0,0,1-2.912-.391,2.46,2.46,0,0,1-1-.783,4.718,4.718,0,0,0-1.713-1.279,9.553,9.553,0,0,0-3.648-.545h0l-.07,0Zm0,2a7.965,7.965,0,0,1,2.949.391,2.445,2.445,0,0,1,1.008.783,4.715,4.715,0,0,0,1.7,1.279,9.471,9.471,0,0,0,3.691.547H1163a11.555,11.555,0,0,1,3.615.3c.1.073.162.125.246.516a11.353,11.353,0,0,1,.135,1.98.99.99,0,0,0,.021.207h-2.672a7.774,7.774,0,0,1-2.912-.391,2.461,2.461,0,0,1-1-.783,4.716,4.716,0,0,0-1.713-1.279,9.564,9.564,0,0,0-3.651-.545l-.07,0a28.823,28.823,0,0,0-3,.086,2.859,2.859,0,0,0-2.918,2.916,28.739,28.739,0,0,0-.086,3v5.969a7.9,7.9,0,0,1-1.223-.115c-.371-.086-.413-.138-.486-.246A11.749,11.749,0,0,1,1147,393v-7c0-1.247.006-2.168.074-2.773s.185-.812.264-.891.284-.194.889-.262S1149.754,382,1151,382Zm4,5a7.965,7.965,0,0,1,2.949.391,2.446,2.446,0,0,1,1.008.783,4.715,4.715,0,0,0,1.7,1.279,9.471,9.471,0,0,0,3.691.547H1167c1.247,0,2.168.006,2.774.074s.812.185.891.264.194.284.262.889.074,1.527.074,2.773v3c0,1.246-.006,2.168-.074,2.773s-.183.81-.262.889-.285.2-.891.264-1.526.074-2.774.074h-12c-1.247,0-2.168-.006-2.773-.074s-.812-.185-.891-.264-.194-.283-.262-.889S1151,398.246,1151,397v-6c0-1.247.006-2.168.074-2.773s.185-.812.264-.891.284-.194.889-.262S1153.754,387,1155,387Z" fill="currentColor"/>
  </g>
</svg>
