<svg width="37" height="36" viewBox="0 0 37 36" fill="none" xmlns="http://www.w3.org/2000/svg">
<path fill-rule="evenodd" clip-rule="evenodd" d="M18.5 5.22922C14.9183 5.22922 14.4699 5.24416 13.0632 5.30834C11.6592 5.37252 10.7 5.59583 9.86131 5.922C8.98214 6.25257 8.18474 6.77128 7.52536 7.44296C6.85475 8.10157 6.33573 8.89842 6.0044 9.77803C5.67999 10.6168 5.4558 11.5768 5.39163 12.9808C5.32833 14.3866 5.3125 14.8341 5.3125 18.4167C5.3125 21.9993 5.32745 22.4468 5.39163 23.8535C5.4558 25.2575 5.67911 26.2167 6.00528 27.0554C6.33585 27.9346 6.85456 28.732 7.52624 29.3914C8.18487 30.0619 8.98171 30.581 9.86131 30.9123C10.7 31.2376 11.6592 31.4609 13.0632 31.5251C14.4699 31.5893 14.9183 31.6042 18.5 31.6042C22.0817 31.6042 22.5301 31.5893 23.9368 31.5251C25.3408 31.4609 26.3 31.2376 27.1387 30.9114C28.0179 30.5809 28.8153 30.0622 29.4746 29.3905C30.1452 28.7319 30.6643 27.935 30.9956 27.0554C31.3209 26.2167 31.5442 25.2575 31.6084 23.8535C31.6726 22.4468 31.6875 21.9984 31.6875 18.4167C31.6875 14.835 31.6726 14.3866 31.6084 12.98C31.5442 11.5759 31.3209 10.6168 30.9947 9.77803C30.6636 8.89804 30.1446 8.10086 29.4738 7.44208C28.8151 6.77147 28.0183 6.25244 27.1387 5.92112C26.3 5.59671 25.3399 5.37252 23.9359 5.30834C22.5301 5.24504 22.0826 5.22922 18.5 5.22922ZM18.5 7.60561C22.0211 7.60561 22.4387 7.61879 23.8295 7.68209C25.1149 7.741 25.8129 7.95463 26.278 8.13662C26.8934 8.37488 27.333 8.66148 27.7945 9.12217C28.2561 9.58373 28.5418 10.0233 28.7801 10.6387C28.9612 11.1038 29.1757 11.8019 29.2346 13.0872C29.2979 14.4781 29.3111 14.8957 29.3111 18.4167C29.3111 21.9378 29.2979 22.3554 29.2346 23.7462C29.1757 25.0316 28.9621 25.7296 28.7801 26.1947C28.569 26.7675 28.2323 27.2857 27.7945 27.7113C27.3691 28.1491 26.8509 28.4859 26.278 28.6968C25.8129 28.8779 25.1149 29.0924 23.8295 29.1513C22.4387 29.2146 22.0219 29.2278 18.5 29.2278C14.9781 29.2278 14.5613 29.2146 13.1705 29.1513C11.8851 29.0924 11.1871 28.8788 10.722 28.6968C10.1492 28.4858 9.63097 28.149 9.20545 27.7113C8.76778 27.2857 8.43102 26.7675 8.2199 26.1947C8.0388 25.7296 7.82428 25.0316 7.76537 23.7462C7.70208 22.3554 7.68889 21.9378 7.68889 18.4167C7.68889 14.8957 7.70208 14.4781 7.76537 13.0872C7.82428 11.8019 8.03792 11.1038 8.2199 10.6387C8.45816 10.0233 8.74477 9.58373 9.20545 9.12217C9.63092 8.68438 10.1492 8.3476 10.722 8.13662C11.1871 7.95551 11.8851 7.741 13.1705 7.68209C14.5613 7.61879 14.9789 7.60561 18.5 7.60561Z" fill="currentColor"/>
<path fill-rule="evenodd" clip-rule="evenodd" d="M18.5001 22.8169C17.9222 22.8169 17.35 22.7031 16.8162 22.482C16.2823 22.2609 15.7972 21.9367 15.3886 21.5281C14.98 21.1195 14.6559 20.6345 14.4348 20.1006C14.2136 19.5667 14.0998 18.9946 14.0998 18.4167C14.0998 17.8389 14.2136 17.2667 14.4348 16.7328C14.6559 16.1989 14.98 15.7139 15.3886 15.3053C15.7972 14.8967 16.2823 14.5726 16.8162 14.3514C17.35 14.1303 17.9222 14.0165 18.5001 14.0165C19.6671 14.0165 20.7863 14.4801 21.6115 15.3053C22.4367 16.1305 22.9003 17.2497 22.9003 18.4167C22.9003 19.5837 22.4367 20.7029 21.6115 21.5281C20.7863 22.3533 19.6671 22.8169 18.5001 22.8169ZM18.5001 11.6383C16.7023 11.6383 14.9782 12.3525 13.707 13.6237C12.4358 14.8949 11.7217 16.619 11.7217 18.4167C11.7217 20.2144 12.4358 21.9385 13.707 23.2097C14.9782 24.4809 16.7023 25.1951 18.5001 25.1951C20.2978 25.1951 22.0219 24.4809 23.2931 23.2097C24.5643 21.9385 25.2784 20.2144 25.2784 18.4167C25.2784 16.619 24.5643 14.8949 23.2931 13.6237C22.0219 12.3525 20.2978 11.6383 18.5001 11.6383ZM27.2504 11.5152C27.2504 11.9402 27.0816 12.3477 26.7811 12.6482C26.4806 12.9487 26.0731 13.1175 25.6481 13.1175C25.2232 13.1175 24.8156 12.9487 24.5151 12.6482C24.2146 12.3477 24.0458 11.9402 24.0458 11.5152C24.0458 11.0903 24.2146 10.6827 24.5151 10.3823C24.8156 10.0818 25.2232 9.91296 25.6481 9.91296C26.0731 9.91296 26.4806 10.0818 26.7811 10.3823C27.0816 10.6827 27.2504 11.0903 27.2504 11.5152Z" fill="currentColor"/>
</svg>
