<svg width="37" height="36" viewBox="0 0 37 36" fill="none" xmlns="http://www.w3.org/2000/svg">
<path d="M31.6455 7.16856V29.6649C31.6455 30.1792 31.4412 30.6725 31.0775 31.0362C30.7138 31.3999 30.2205 31.6042 29.7062 31.6042H7.20985C6.6955 31.6042 6.20222 31.3999 5.83853 31.0362C5.47483 30.6725 5.27051 30.1792 5.27051 29.6649V7.16856C5.27051 6.65421 5.47483 6.16093 5.83853 5.79724C6.20222 5.43354 6.6955 5.22922 7.20985 5.22922H29.7062C30.2205 5.22922 30.7138 5.43354 31.0775 5.79724C31.4412 6.16093 31.6455 6.65421 31.6455 7.16856ZM13.0279 15.3138H9.14918V27.7255H13.0279V15.3138ZM13.3769 11.0472C13.379 10.7538 13.3232 10.4629 13.2128 10.1911C13.1024 9.91924 12.9396 9.67181 12.7336 9.46291C12.5276 9.25401 12.2824 9.08774 12.0121 8.97359C11.7418 8.85943 11.4517 8.79963 11.1583 8.7976H11.0885C10.4919 8.7976 9.91968 9.03461 9.49779 9.4565C9.0759 9.87839 8.83889 10.4506 8.83889 11.0472C8.83889 11.6439 9.0759 12.2161 9.49779 12.638C9.91968 13.0599 10.4919 13.2969 11.0885 13.2969C11.3819 13.3041 11.6739 13.2534 11.9477 13.1478C12.2215 13.0421 12.4719 12.8835 12.6844 12.6811C12.8969 12.4787 13.0674 12.2363 13.1863 11.968C13.3051 11.6996 13.3699 11.4105 13.3769 11.117V11.0472ZM27.7668 20.1854C27.7668 16.4541 25.3931 15.0035 23.0348 15.0035C22.2627 14.9648 21.4939 15.1293 20.8052 15.4805C20.1165 15.8316 19.5318 16.3572 19.1096 17.0049H19.001V15.3138H15.3551V27.7255H19.2337V21.124C19.1777 20.4479 19.3906 19.777 19.8264 19.257C20.2621 18.737 20.8855 18.41 21.5609 18.3469H21.7083C22.9418 18.3469 23.8571 19.1226 23.8571 21.0775V27.7255H27.7358L27.7668 20.1854Z" fill="currentColor"/>
</svg>
