<svg xmlns="http://www.w3.org/2000/svg" width="18" height="25.999" viewBox="0 0 18 25.999">
  <g id="location" transform="translate(-547 -465)">
    <path id="Form_34" data-name="Form 34" d="M555.3,490.717l-1.644-1.6v0C549.4,484.964,547,481.236,547,475.252v-1.127a9.19,9.19,0,0,1,2.631-6.448,8.913,8.913,0,0,1,12.738,0A9.187,9.187,0,0,1,565,474.125v1.127c0,5.984-2.4,9.711-6.658,13.861v0l-1.645,1.6a1,1,0,0,1-1.394,0ZM549,474.125v1.127c0,5.45,2.189,8.66,6.054,12.43.555.54.654.638.946.922l.945-.922c3.866-3.77,6.054-6.98,6.054-12.43v-1.127a7.19,7.19,0,0,0-2.054-5.044h0a6.91,6.91,0,0,0-9.886,0h0A7.191,7.191,0,0,0,549,474.125Zm3-.125a4,4,0,1,1,4,4A4.015,4.015,0,0,1,552,474Zm2,0a2,2,0,1,0,2-2A1.985,1.985,0,0,0,554,474Z" fill="currentColor"/>
  </g>
</svg>
