<svg width="14" height="18" viewBox="0 0 14 18" fill="none" xmlns="http://www.w3.org/2000/svg">
<path fill-rule="evenodd" clip-rule="evenodd" d="M2.625 5.04167C2.625 2.74048 4.49048 0.875 6.79167 0.875C9.09285 0.875 10.9583 2.74048 10.9583 5.04167V6.22197C12.4296 6.86486 13.4583 8.33231 13.4583 10.0417V13.375C13.4583 15.6762 11.5929 17.5417 9.29167 17.5417H4.29167C1.99048 17.5417 0.125 15.6762 0.125 13.375V10.0417C0.125 8.33231 1.15373 6.86486 2.625 6.22197V5.04167ZM4.29167 5.875H9.29167V5.04167C9.29167 3.66095 8.17238 2.54167 6.79167 2.54167C5.41095 2.54167 4.29167 3.66095 4.29167 5.04167V5.875ZM4.29167 7.54167C4.07457 7.54167 3.86511 7.56914 3.66605 7.62038C2.5876 7.89795 1.79167 8.87791 1.79167 10.0417V13.375C1.79167 14.7557 2.91095 15.875 4.29167 15.875H9.29167C10.6724 15.875 11.7917 14.7557 11.7917 13.375V10.0417C11.7917 8.87791 10.9957 7.89795 9.91728 7.62038C9.71822 7.56914 9.50876 7.54167 9.29167 7.54167H4.29167ZM6.79167 10.0417C7.2519 10.0417 7.625 10.4148 7.625 10.875V12.5417C7.625 13.0019 7.2519 13.375 6.79167 13.375C6.33143 13.375 5.95833 13.0019 5.95833 12.5417V10.875C5.95833 10.4148 6.33143 10.0417 6.79167 10.0417Z" fill="currentColor"/>
</svg>
