<svg width="130" height="25" viewBox="0 0 130 25" fill="none" xmlns="http://www.w3.org/2000/svg">
<rect width="26" height="14" rx="7" fill="#DF5B93"/>
<rect y="12" width="26" height="13" rx="6.5" fill="#1C7BFF"/>
<path d="M40.96 20.24C39.184 20.24 37.776 19.728 36.736 18.704C35.696 17.68 35.136 16.224 35.056 14.336C35.04 14.176 35.032 13.976 35.032 13.736C35.032 13.48 35.04 13.28 35.056 13.136C35.12 11.936 35.392 10.896 35.872 10.016C36.368 9.136 37.048 8.464 37.912 8C38.776 7.52 39.792 7.28 40.96 7.28C42.256 7.28 43.344 7.552 44.224 8.096C45.104 8.624 45.768 9.368 46.216 10.328C46.664 11.272 46.888 12.368 46.888 13.616V14.12C46.888 14.28 46.832 14.416 46.72 14.528C46.608 14.64 46.464 14.696 46.288 14.696H38.32C38.32 14.696 38.32 14.72 38.32 14.768C38.32 14.816 38.32 14.856 38.32 14.888C38.336 15.448 38.44 15.968 38.632 16.448C38.84 16.912 39.136 17.288 39.52 17.576C39.92 17.864 40.392 18.008 40.936 18.008C41.384 18.008 41.76 17.944 42.064 17.816C42.368 17.672 42.616 17.512 42.808 17.336C43 17.16 43.136 17.016 43.216 16.904C43.36 16.712 43.472 16.6 43.552 16.568C43.648 16.52 43.784 16.496 43.96 16.496H46.024C46.184 16.496 46.312 16.544 46.408 16.64C46.52 16.736 46.568 16.856 46.552 17C46.536 17.256 46.4 17.568 46.144 17.936C45.904 18.304 45.552 18.664 45.088 19.016C44.624 19.368 44.04 19.664 43.336 19.904C42.648 20.128 41.856 20.24 40.96 20.24ZM38.32 12.68H43.624V12.608C43.624 11.984 43.52 11.44 43.312 10.976C43.104 10.512 42.8 10.144 42.4 9.872C42 9.6 41.52 9.464 40.96 9.464C40.4 9.464 39.92 9.6 39.52 9.872C39.12 10.144 38.816 10.512 38.608 10.976C38.416 11.44 38.32 11.984 38.32 12.608V12.68ZM54.0676 20.24C53.2356 20.24 52.4996 20.104 51.8596 19.832C51.2356 19.544 50.7156 19.144 50.2996 18.632C49.8836 18.12 49.5636 17.52 49.3396 16.832C49.1156 16.128 48.9876 15.36 48.9556 14.528C48.9396 14.24 48.9316 13.984 48.9316 13.76C48.9316 13.52 48.9396 13.256 48.9556 12.968C48.9876 12.168 49.1076 11.424 49.3156 10.736C49.5396 10.048 49.8596 9.448 50.2756 8.936C50.7076 8.408 51.2356 8 51.8596 7.712C52.4996 7.424 53.2356 7.28 54.0676 7.28C54.9316 7.28 55.6596 7.432 56.2516 7.736C56.8596 8.024 57.3636 8.4 57.7636 8.864V3.536C57.7636 3.376 57.8116 3.24 57.9076 3.128C58.0196 3.016 58.1636 2.96 58.3396 2.96H60.3796C60.5396 2.96 60.6756 3.016 60.7876 3.128C60.8996 3.24 60.9556 3.376 60.9556 3.536V19.424C60.9556 19.584 60.8996 19.72 60.7876 19.832C60.6756 19.944 60.5396 20 60.3796 20H58.4836C58.3076 20 58.1636 19.944 58.0516 19.832C57.9556 19.72 57.9076 19.584 57.9076 19.424V18.536C57.5076 19.032 56.9956 19.44 56.3716 19.76C55.7636 20.08 54.9956 20.24 54.0676 20.24ZM54.9556 17.672C55.6276 17.672 56.1636 17.52 56.5636 17.216C56.9636 16.912 57.2596 16.528 57.4516 16.064C57.6436 15.584 57.7476 15.096 57.7636 14.6C57.7796 14.312 57.7876 14.008 57.7876 13.688C57.7876 13.352 57.7796 13.04 57.7636 12.752C57.7476 12.272 57.6356 11.816 57.4276 11.384C57.2196 10.936 56.9156 10.568 56.5156 10.28C56.1156 9.992 55.5956 9.848 54.9556 9.848C54.2836 9.848 53.7476 10 53.3476 10.304C52.9636 10.592 52.6836 10.976 52.5076 11.456C52.3316 11.936 52.2276 12.464 52.1956 13.04C52.1796 13.52 52.1796 14 52.1956 14.48C52.2276 15.056 52.3316 15.584 52.5076 16.064C52.6836 16.544 52.9636 16.936 53.3476 17.24C53.7476 17.528 54.2836 17.672 54.9556 17.672ZM68.7863 20.24C67.8103 20.24 66.9623 20.024 66.2423 19.592C65.5383 19.144 64.9943 18.52 64.6103 17.72C64.2263 16.904 64.0343 15.944 64.0343 14.84V8.096C64.0343 7.936 64.0903 7.8 64.2023 7.688C64.3143 7.576 64.4503 7.52 64.6103 7.52H66.7223C66.8983 7.52 67.0343 7.576 67.1303 7.688C67.2423 7.8 67.2983 7.936 67.2983 8.096V14.696C67.2983 16.68 68.1703 17.672 69.9143 17.672C70.7463 17.672 71.4023 17.408 71.8823 16.88C72.3783 16.352 72.6263 15.624 72.6263 14.696V8.096C72.6263 7.936 72.6823 7.8 72.7943 7.688C72.9063 7.576 73.0423 7.52 73.2023 7.52H75.3143C75.4743 7.52 75.6103 7.576 75.7223 7.688C75.8343 7.8 75.8903 7.936 75.8903 8.096V19.424C75.8903 19.584 75.8343 19.72 75.7223 19.832C75.6103 19.944 75.4743 20 75.3143 20H73.3703C73.1943 20 73.0503 19.944 72.9383 19.832C72.8423 19.72 72.7943 19.584 72.7943 19.424V18.44C72.3623 19 71.8263 19.44 71.1863 19.76C70.5463 20.08 69.7463 20.24 68.7863 20.24Z" fill="#242424"/>
<path d="M79.6366 20C79.4766 20 79.3406 19.944 79.2286 19.832C79.1166 19.72 79.0606 19.584 79.0606 19.424V8.096C79.0606 7.936 79.1166 7.8 79.2286 7.688C79.3406 7.576 79.4766 7.52 79.6366 7.52H81.6046C81.7646 7.52 81.9006 7.576 82.0126 7.688C82.1246 7.8 82.1806 7.936 82.1806 8.096V9.08C82.5966 8.568 83.1246 8.144 83.7646 7.808C84.4206 7.456 85.2286 7.28 86.1886 7.28C87.1646 7.28 88.0126 7.504 88.7326 7.952C89.4526 8.384 90.0046 9 90.3886 9.8C90.7886 10.6 90.9886 11.56 90.9886 12.68V19.424C90.9886 19.584 90.9326 19.72 90.8206 19.832C90.7086 19.944 90.5726 20 90.4126 20H88.3006C88.1406 20 88.0046 19.944 87.8926 19.832C87.7806 19.72 87.7246 19.584 87.7246 19.424V12.824C87.7246 11.896 87.4926 11.168 87.0286 10.64C86.5806 10.112 85.9246 9.848 85.0606 9.848C84.2286 9.848 83.5646 10.112 83.0686 10.64C82.5726 11.168 82.3246 11.896 82.3246 12.824V19.424C82.3246 19.584 82.2686 19.72 82.1566 19.832C82.0446 19.944 81.9086 20 81.7486 20H79.6366ZM99.4131 20.24C97.6371 20.24 96.2291 19.728 95.1891 18.704C94.1491 17.68 93.5891 16.224 93.5091 14.336C93.4931 14.176 93.4851 13.976 93.4851 13.736C93.4851 13.48 93.4931 13.28 93.5091 13.136C93.5731 11.936 93.8451 10.896 94.3251 10.016C94.8211 9.136 95.5011 8.464 96.3651 8C97.2291 7.52 98.2451 7.28 99.4131 7.28C100.709 7.28 101.797 7.552 102.677 8.096C103.557 8.624 104.221 9.368 104.669 10.328C105.117 11.272 105.341 12.368 105.341 13.616V14.12C105.341 14.28 105.285 14.416 105.173 14.528C105.061 14.64 104.917 14.696 104.741 14.696H96.7731C96.7731 14.696 96.7731 14.72 96.7731 14.768C96.7731 14.816 96.7731 14.856 96.7731 14.888C96.7891 15.448 96.8931 15.968 97.0851 16.448C97.2931 16.912 97.5891 17.288 97.9731 17.576C98.3731 17.864 98.8451 18.008 99.3891 18.008C99.8371 18.008 100.213 17.944 100.517 17.816C100.821 17.672 101.069 17.512 101.261 17.336C101.453 17.16 101.589 17.016 101.669 16.904C101.813 16.712 101.925 16.6 102.005 16.568C102.101 16.52 102.237 16.496 102.413 16.496H104.477C104.637 16.496 104.765 16.544 104.861 16.64C104.973 16.736 105.021 16.856 105.005 17C104.989 17.256 104.853 17.568 104.597 17.936C104.357 18.304 104.005 18.664 103.541 19.016C103.077 19.368 102.493 19.664 101.789 19.904C101.101 20.128 100.309 20.24 99.4131 20.24ZM96.7731 12.68H102.077V12.608C102.077 11.984 101.973 11.44 101.765 10.976C101.557 10.512 101.253 10.144 100.853 9.872C100.453 9.6 99.9731 9.464 99.4131 9.464C98.8531 9.464 98.3731 9.6 97.9731 9.872C97.5731 10.144 97.2691 10.512 97.0611 10.976C96.8691 11.44 96.7731 11.984 96.7731 12.608V12.68ZM107.033 20C106.889 20 106.761 19.952 106.649 19.856C106.553 19.744 106.505 19.616 106.505 19.472C106.505 19.424 106.513 19.368 106.529 19.304C106.561 19.24 106.609 19.16 106.673 19.064L110.753 13.592L106.961 8.456C106.913 8.376 106.873 8.304 106.841 8.24C106.825 8.176 106.817 8.112 106.817 8.048C106.817 7.904 106.865 7.784 106.961 7.688C107.073 7.576 107.201 7.52 107.345 7.52H109.433C109.625 7.52 109.769 7.568 109.865 7.664C109.961 7.76 110.033 7.848 110.081 7.928L112.793 11.528L115.505 7.928C115.569 7.848 115.641 7.76 115.721 7.664C115.817 7.568 115.961 7.52 116.153 7.52H118.145C118.289 7.52 118.409 7.576 118.505 7.688C118.617 7.784 118.673 7.896 118.673 8.024C118.673 8.104 118.657 8.176 118.625 8.24C118.609 8.304 118.577 8.376 118.529 8.456L114.689 13.64L118.793 19.064C118.857 19.16 118.897 19.24 118.913 19.304C118.945 19.368 118.961 19.424 118.961 19.472C118.961 19.616 118.905 19.744 118.793 19.856C118.697 19.952 118.577 20 118.433 20H116.249C116.073 20 115.937 19.96 115.841 19.88C115.745 19.784 115.665 19.696 115.601 19.616L112.721 15.8L109.793 19.616C109.729 19.696 109.649 19.784 109.553 19.88C109.473 19.96 109.337 20 109.145 20H107.033ZM126.747 20C125.787 20 124.979 19.832 124.323 19.496C123.667 19.16 123.179 18.664 122.859 18.008C122.539 17.336 122.379 16.504 122.379 15.512V10.064H120.483C120.323 10.064 120.187 10.008 120.075 9.896C119.963 9.784 119.907 9.648 119.907 9.488V8.096C119.907 7.936 119.963 7.8 120.075 7.688C120.187 7.576 120.323 7.52 120.483 7.52H122.379V3.536C122.379 3.376 122.427 3.24 122.523 3.128C122.635 3.016 122.779 2.96 122.955 2.96H124.899C125.059 2.96 125.195 3.016 125.307 3.128C125.419 3.24 125.475 3.376 125.475 3.536V7.52H128.475C128.635 7.52 128.771 7.576 128.883 7.688C128.995 7.8 129.051 7.936 129.051 8.096V9.488C129.051 9.648 128.995 9.784 128.883 9.896C128.771 10.008 128.635 10.064 128.475 10.064H125.475V15.272C125.475 15.928 125.587 16.44 125.811 16.808C126.051 17.176 126.459 17.36 127.035 17.36H128.691C128.851 17.36 128.987 17.416 129.099 17.528C129.211 17.64 129.267 17.776 129.267 17.936V19.424C129.267 19.584 129.211 19.72 129.099 19.832C128.987 19.944 128.851 20 128.691 20H126.747Z" fill="#1C7BFF"/>
</svg>
