<svg width="20" height="20" viewBox="0 0 20 20" fill="none" xmlns="http://www.w3.org/2000/svg">
<path d="M3.31266 16.3513C3.12488 16.7205 3.27195 17.172 3.64115 17.3598C4.01035 17.5476 4.46188 17.4005 4.64966 17.0313L3.31266 16.3513ZM15.3503 17.0313C15.5381 17.4005 15.9896 17.5476 16.3588 17.3598C16.728 17.172 16.8751 16.7205 16.6873 16.3513L15.3503 17.0313ZM18.25 10C18.25 14.5563 14.5563 18.25 10 18.25V19.75C15.3848 19.75 19.75 15.3848 19.75 10H18.25ZM10 18.25C5.44365 18.25 1.75 14.5563 1.75 10H0.25C0.25 15.3848 4.61522 19.75 10 19.75V18.25ZM1.75 10C1.75 5.44365 5.44365 1.75 10 1.75V0.25C4.61522 0.25 0.25 4.61522 0.25 10H1.75ZM10 1.75C14.5563 1.75 18.25 5.44365 18.25 10H19.75C19.75 4.61522 15.3848 0.25 10 0.25V1.75ZM4.64966 17.0313C5.15186 16.044 5.91749 15.2148 6.86179 14.6357L6.07758 13.357C4.89731 14.0809 3.94036 15.1172 3.31266 16.3513L4.64966 17.0313ZM6.86179 14.6357C7.8061 14.0565 8.89224 13.75 9.99999 13.75L9.99998 12.25C8.61542 12.25 7.25786 12.6331 6.07758 13.357L6.86179 14.6357ZM9.99999 13.75C11.1077 13.75 12.1939 14.0565 13.1382 14.6357L13.9224 13.357C12.7421 12.6331 11.3845 12.25 9.99998 12.25L9.99999 13.75ZM13.1382 14.6357C14.0825 15.2148 14.8481 16.0439 15.3503 17.0313L16.6873 16.3513C16.0596 15.1172 15.1027 14.0808 13.9224 13.357L13.1382 14.6357ZM13 9.25C13 10.9069 11.6568 12.25 9.99999 12.25V13.75C12.4853 13.75 14.5 11.7353 14.5 9.25H13ZM9.99999 12.25C8.34314 12.25 7 10.9069 7 9.25H5.5C5.5 11.7353 7.5147 13.75 9.99999 13.75V12.25ZM7 9.25C7 7.59315 8.34315 6.25 10 6.25V4.75C7.51472 4.75 5.5 6.76472 5.5 9.25H7ZM10 6.25C11.6569 6.25 13 7.59315 13 9.25H14.5C14.5 6.76472 12.4853 4.75 10 4.75V6.25Z" fill="currentColor"/>
</svg>
