<svg xmlns="http://www.w3.org/2000/svg" width="17.252" height="16.292" viewBox="0 0 17.252 16.292">
  <path id="Path_51169" data-name="Path 51169" d="M17.494,8.568,8.926,0,7.575,1.351,9.856,3.632,4.92,8.568a1.429,1.429,0,0,0,0,2.032l5.271,5.271a1.434,1.434,0,0,0,2.032,0L17.494,10.6A1.429,1.429,0,0,0,17.494,8.568ZM6.617,9.583l4.59-4.59,4.59,4.59Zm13.215,1.437s-1.917,2.08-1.917,3.354a1.917,1.917,0,0,0,3.833,0C21.749,13.1,19.832,11.021,19.832,11.021Z" transform="translate(-4.496)" fill="currentColor"/>
</svg>
