<svg width="28" height="28" viewBox="0 0 28 28" fill="none" xmlns="http://www.w3.org/2000/svg">
<path d="M10.5 23.625H5.25C5.01794 23.625 4.79538 23.5328 4.63128 23.3687C4.46719 23.2046 4.375 22.9821 4.375 22.75V17.8624C4.375 17.7475 4.39763 17.6337 4.44161 17.5276C4.48558 17.4214 4.55003 17.325 4.63128 17.2437L17.7563 4.11871C17.9204 3.95461 18.1429 3.86243 18.375 3.86243C18.6071 3.86243 18.8296 3.95461 18.9937 4.11871L23.8813 9.00627C24.0454 9.17037 24.1376 9.39292 24.1376 9.62499C24.1376 9.85705 24.0454 10.0796 23.8813 10.2437L10.5 23.625ZM10.5 23.625H23.625M10.5 23.625L4.43067 17.5557M14.875 6.99999L21 13.125" stroke="white" stroke-width="1.5" stroke-linecap="round" stroke-linejoin="round"/>
</svg>
