<svg xmlns="http://www.w3.org/2000/svg" width="21.905" height="21.921" viewBox="0 0 21.905 21.921">
  <g id="phone" transform="translate(-1148.064 -467.014)">
    <path id="Form_41" data-name="Form 41" d="M1167.966,482.93a1,1,0,0,0-.851-1.038,13.867,13.867,0,0,1-3.033-.755,1,1,0,0,0-1.052.221l-1.271,1.27a1,1,0,0,1-1.2.162,17.005,17.005,0,0,1-6.38-6.373,1,1,0,0,1,.162-1.2l1.267-1.266a1,1,0,0,0,.224-1.057,13.808,13.808,0,0,1-.754-3.019,1,1,0,0,0-1.011-.86h-3a1,1,0,0,0-.738.326.992.992,0,0,0-.259.749,18.783,18.783,0,0,0,2.922,8.237,18.516,18.516,0,0,0,5.7,5.7,18.8,18.8,0,0,0,8.182,2.912,1,1,0,0,0,1.091-1Zm2,.011v2.984a3,3,0,0,1-3.29,3,20.807,20.807,0,0,1-9.065-3.219,20.5,20.5,0,0,1-6.308-6.3,20.782,20.782,0,0,1-3.229-9.121,3,3,0,0,1,2.988-3.269h2.993a3,3,0,0,1,3,2.589,11.828,11.828,0,0,0,.645,2.588,3,3,0,0,1-.68,3.168l-.718.717a15.006,15.006,0,0,0,4.589,4.585l.722-.721a3,3,0,0,1,3.165-.676,11.873,11.873,0,0,0,2.6.647A3,3,0,0,1,1169.968,482.941Z" fill="currentColor"/>
  </g>
</svg>
