<svg width="51" height="51" viewBox="0 0 51 51" fill="none" xmlns="http://www.w3.org/2000/svg">
<path d="M33.625 25.5L34.041 26.124C34.2497 25.9849 34.375 25.7508 34.375 25.5C34.375 25.2492 34.2497 25.0151 34.041 24.876L33.625 25.5ZM21.4375 17.375L21.8535 16.751C21.6234 16.5975 21.3275 16.5832 21.0836 16.7137C20.8397 16.8443 20.6875 17.0984 20.6875 17.375H21.4375ZM21.4375 33.625H20.6875C20.6875 33.9016 20.8397 34.1557 21.0836 34.2863C21.3275 34.4168 21.6234 34.4025 21.8535 34.249L21.4375 33.625ZM49.125 25.5C49.125 38.5477 38.5477 49.125 25.5 49.125V50.625C39.3762 50.625 50.625 39.3762 50.625 25.5H49.125ZM25.5 49.125C12.4523 49.125 1.875 38.5477 1.875 25.5H0.375C0.375 39.3762 11.6238 50.625 25.5 50.625V49.125ZM1.875 25.5C1.875 12.4523 12.4523 1.875 25.5 1.875V0.375C11.6238 0.375 0.375 11.6238 0.375 25.5H1.875ZM25.5 1.875C38.5477 1.875 49.125 12.4523 49.125 25.5H50.625C50.625 11.6238 39.3762 0.375 25.5 0.375V1.875ZM34.041 24.876L21.8535 16.751L21.0215 17.999L33.209 26.124L34.041 24.876ZM20.6875 17.375V33.625H22.1875V17.375H20.6875ZM21.8535 34.249L34.041 26.124L33.209 24.876L21.0215 33.001L21.8535 34.249Z" fill="currentColor"/>
</svg>
