<svg width="18" height="20" viewBox="0 0 18 20" fill="none" xmlns="http://www.w3.org/2000/svg">
<path d="M11.2504 8.75V14.75M6.75037 8.75V14.75M17.25 4.25L0.75 4.25001M15.7504 4.25V18.5C15.7504 18.6989 15.6713 18.8897 15.5307 19.0303C15.39 19.171 15.1993 19.25 15.0004 19.25H3.00037C2.80145 19.25 2.61069 19.171 2.47004 19.0303C2.32938 18.8897 2.25037 18.6989 2.25037 18.5V4.25M12.7504 4.25V2.75C12.7504 2.35218 12.5923 1.97064 12.311 1.68934C12.0297 1.40804 11.6482 1.25 11.2504 1.25H6.75037C6.35254 1.25 5.97101 1.40804 5.68971 1.68934C5.4084 1.97064 5.25037 2.35218 5.25037 2.75V4.25" stroke="#8C94A0" stroke-width="1.5" stroke-linecap="round" stroke-linejoin="round"/>
</svg>
