<svg width="37" height="36" viewBox="0 0 37 36" fill="none" xmlns="http://www.w3.org/2000/svg">
<path d="M30.194 12.4385C30.2119 12.6968 30.2119 12.9552 30.2119 13.2159C30.2119 21.1605 24.1639 30.323 13.1048 30.323V30.3183C9.83788 30.323 6.63886 29.3872 3.88867 27.6228C4.3637 27.68 4.84112 27.7086 5.31972 27.7097C8.02705 27.7121 10.657 26.8037 12.7869 25.131C10.2141 25.0822 7.95799 23.4047 7.16985 20.9557C8.0711 21.1295 8.99973 21.0938 9.88432 20.8521C7.07936 20.2854 5.06137 17.821 5.06137 14.9589C5.06137 14.9327 5.06137 14.9077 5.06137 14.8827C5.89714 15.3482 6.83292 15.6065 7.79013 15.6351C5.14828 13.8695 4.33394 10.355 5.92929 7.60719C8.98187 11.3634 13.4858 13.6469 18.3206 13.8886C17.836 11.8003 18.498 9.61209 20.06 8.14413C22.4816 5.86779 26.2902 5.98446 28.5665 8.40486C29.9131 8.13937 31.2036 7.64529 32.3846 6.94524C31.9358 8.337 30.9965 9.51923 29.7416 10.2705C30.9334 10.13 32.0977 9.81091 33.1942 9.32397C32.387 10.5336 31.3703 11.5872 30.194 12.4385Z" fill="currentColor"/>
</svg>
