<svg width="36" height="36" viewBox="0 0 36 36" fill="none" xmlns="http://www.w3.org/2000/svg">
<path fill-rule="evenodd" clip-rule="evenodd" d="M29.834 8.76742C31.0942 9.10599 32.0911 10.1029 32.4297 11.3632C33.0504 13.6579 33.0692 18.4168 33.0692 18.4168C33.0692 18.4168 33.0692 23.1945 32.4485 25.4705C32.1099 26.7307 31.113 27.7276 29.8528 28.0662C27.5768 28.6869 18.4164 28.6869 18.4164 28.6869C18.4164 28.6869 9.25611 28.6869 6.98014 28.0662C5.71988 27.7276 4.72297 26.7307 4.38439 25.4705C3.76367 23.1757 3.76367 18.4168 3.76367 18.4168C3.76367 18.4168 3.76367 13.6579 4.36558 11.382C4.70416 10.1217 5.70107 9.12481 6.96133 8.78623C9.2373 8.1655 18.3976 8.1467 18.3976 8.1467C18.3976 8.1467 27.558 8.1467 29.834 8.76742ZM23.0813 18.4168L15.4821 22.8183V14.0153L23.0813 18.4168Z" fill="currentColor"/>
</svg>
