<svg xmlns="http://www.w3.org/2000/svg" width="20.014" height="28.016" viewBox="0 0 20.014 28.016">
  <g id="paper" transform="translate(-718.999 -290.986)">
    <path id="Form_13" data-name="Form 13" d="M732,319l-.07,0H726a34.708,34.708,0,0,1-3.572-.1,3.237,3.237,0,0,1-3.325-3.323A34.437,34.437,0,0,1,719,312V298a34.719,34.719,0,0,1,.1-3.572,3.237,3.237,0,0,1,3.323-3.325A34.437,34.437,0,0,1,726,291h5.84a.977.977,0,0,1,.144-.013h0a.961.961,0,0,1,.209.02,4.774,4.774,0,0,1,2.26.357,19.116,19.116,0,0,1,4.185,4.189,4.761,4.761,0,0,1,.355,2.254,1,1,0,0,1,.006.362V312a34.4,34.4,0,0,1-.1,3.574,3.237,3.237,0,0,1-3.325,3.323,32.964,32.964,0,0,1-3.425.1Zm-9.352-25.913a1.344,1.344,0,0,0-1.559,1.561c-.084.746-.089,1.855-.089,3.35v14c0,1.5.005,2.605.089,3.352a1.343,1.343,0,0,0,1.561,1.558c.746.084,1.855.09,3.35.09h6l.07,0c1.454,0,2.547-.007,3.28-.089a1.346,1.346,0,0,0,1.561-1.559c.084-.746.089-1.855.089-3.352V299h-5a1,1,0,0,1-1-1v-5h-5C724.5,293,723.394,293.006,722.648,293.09ZM733,297h3.976a1.429,1.429,0,0,0-.127-.553,21.074,21.074,0,0,0-3.293-3.3,1.453,1.453,0,0,0-.556-.127h0Zm1,17H723.972a1,1,0,0,1,.028-2h10.029a1,1,0,0,1-.014,2Zm-10.028-4a1,1,0,0,1,.028-2h10.029a1,1,0,0,1-.029,2H723.972ZM734,306H723.972a1,1,0,0,1,.028-2h10.029a1,1,0,0,1-.014,2Z" fill="currentColor"/>
  </g>
</svg>
